# xmcd
#
# Track frame offsets:
#	150
#	15915
#	30603
#	45944
#	63042
#	79512
#	94795
#	113022
#	129440
#	145173
#	160495
#	178224
#	192835
#	208143
#	224676
#	240292
#	256663
#
# Disc length: 3734 seconds
# Revision: 0
# Processed by: cddbd v1.5.2PL0 Copyright (c) Steve Scherf et al.
# Submitted via: dBpowerAMP V12.0
#
DISCID=d90e9411
DTITLE=Oliver Frank - Küsse und mehr
DYEAR=2007
DGENRE=Discofox
TTITLE0=1000 Küsse und mehr
TTITLE1=Zwischen Himmel und Liebe
TTITLE2=Tausend Feuer brennen (Single Version)
TTITLE3=Ich falle immer wieder auf dich rein
TTITLE4=Du bist ein Teufel mein Engel
TTITLE5=Sonne Sand und Cappuccino (Single Version)
TTITLE6=Alles oder nichts
TTITLE7=Nur ein Spiel (Solamente un gioco) (Single Version)
TTITLE8=Wirst du von mir träumen
TTITLE9=Aus Liebe stirbt man nicht
TTITLE10=Gleich in der Nacht
TTITLE11=Ich möchte mit dir...
TTITLE12=Weekend in L.A. (Single Version)
TTITLE13=Denk nicht mehr dran
TTITLE14=Nichts als die Wahrheit (La Verità) (Album Mix)
TTITLE15=Hallo Madeleine
TTITLE16=Solamente un gioco (Italo Maxi Edit)
EXTD=
EXTT0=
EXTT1=
EXTT2=
EXTT3=
EXTT4=
EXTT5=
EXTT6=
EXTT7=
EXTT8=
EXTT9=
EXTT10=
EXTT11=
EXTT12=
EXTT13=
EXTT14=
EXTT15=
EXTT16=
PLAYORDER=
